<svg width="753" height="879" viewBox="0 0 753 879" fill="none" xmlns="http://www.w3.org/2000/svg">
<path d="M624 312C624 484.313 484.313 624 312 624C139.687 624 0 484.313 0 312C0 139.687 139.687 0 312 0C484.313 0 624 139.687 624 312Z" fill="white"/>
<path fill-rule="evenodd" clip-rule="evenodd" d="M312 604C473.267 604 604 473.267 604 312C604 150.733 473.267 20 312 20C150.733 20 20 150.733 20 312C20 473.267 150.733 604 312 604ZM312 624C484.313 624 624 484.313 624 312C624 139.687 484.313 0 312 0C139.687 0 0 139.687 0 312C0 484.313 139.687 624 312 624Z" fill="#3B633A"/>
<path fill-rule="evenodd" clip-rule="evenodd" d="M608.194 706.895C599.146 713.231 586.675 711.032 580.34 701.984L487.216 568.99C480.88 559.941 483.079 547.471 492.127 541.135C501.175 534.799 513.646 536.998 519.982 546.046L613.106 679.041C619.441 688.089 617.242 700.56 608.194 706.895Z" fill="#3B633A"/>
<path fill-rule="evenodd" clip-rule="evenodd" d="M703.652 843.633C676.507 862.64 639.095 856.043 620.088 828.899L529.117 698.978C510.11 671.834 516.707 634.421 543.851 615.414C570.995 596.408 608.408 603.005 627.415 630.149L718.386 760.07C737.393 787.214 730.796 824.627 703.652 843.633Z" fill="#3B633A"/>
<path d="M478 212C478 249.003 403.679 279 312 279C220.321 279 146 249.003 146 212C146 174.997 220.321 145 312 145C403.679 145 478 174.997 478 212Z" fill="white"/>
<path fill-rule="evenodd" clip-rule="evenodd" d="M451.148 223.61C457.055 217.973 458 214.047 458 212C458 209.953 457.055 206.027 451.148 200.39C445.191 194.706 435.508 188.665 421.894 183.17C394.772 172.223 355.928 165 312 165C268.072 165 229.228 172.223 202.106 183.17C188.492 188.665 178.809 194.706 172.852 200.39C166.945 206.027 166 209.953 166 212C166 214.047 166.945 217.973 172.852 223.61C178.809 229.294 188.492 235.335 202.106 240.83C229.228 251.777 268.072 259 312 259C355.928 259 394.772 251.777 421.894 240.83C435.508 235.335 445.191 229.294 451.148 223.61ZM312 279C403.679 279 478 249.003 478 212C478 174.997 403.679 145 312 145C220.321 145 146 174.997 146 212C146 249.003 220.321 279 312 279Z" fill="#3B633A"/>
<path fill-rule="evenodd" clip-rule="evenodd" d="M156 260.5C160.142 260.5 163.5 263.858 163.5 268C163.5 274.763 166.609 281.801 173.449 288.86C180.324 295.955 190.635 302.686 203.959 308.502C230.586 320.124 267.894 327.5 309.5 327.5C351.106 327.5 388.414 320.124 415.041 308.502C428.365 302.686 438.676 295.955 445.551 288.86C452.391 281.801 455.5 274.763 455.5 268C455.5 263.858 458.858 260.5 463 260.5C467.142 260.5 470.5 263.858 470.5 268C470.5 279.738 465.018 290.326 456.323 299.299C447.663 308.236 435.495 315.941 421.041 322.25C392.112 334.877 352.67 342.5 309.5 342.5C266.33 342.5 226.888 334.877 197.959 322.25C183.505 315.941 171.337 308.236 162.677 299.299C153.982 290.326 148.5 279.738 148.5 268C148.5 263.858 151.858 260.5 156 260.5Z" fill="#3B633A"/>
<path fill-rule="evenodd" clip-rule="evenodd" d="M152 332.5C156.142 332.5 159.5 335.858 159.5 340C159.5 346.729 162.633 353.757 169.572 360.825C176.544 367.927 187.001 374.667 200.513 380.488C227.51 392.121 265.331 399.5 307.5 399.5C349.669 399.5 387.49 392.121 414.487 380.488C427.999 374.667 438.456 367.927 445.428 360.825C452.367 353.757 455.5 346.729 455.5 340C455.5 335.858 458.858 332.5 463 332.5C467.142 332.5 470.5 335.858 470.5 340C470.5 351.773 464.931 362.37 456.132 371.333C447.366 380.263 435.051 387.961 420.423 394.264C391.141 406.881 351.211 414.5 307.5 414.5C263.789 414.5 223.859 406.881 194.577 394.264C179.949 387.961 167.634 380.263 158.868 371.333C150.069 362.37 144.5 351.773 144.5 340C144.5 335.858 147.858 332.5 152 332.5Z" fill="#3B633A"/>
<path fill-rule="evenodd" clip-rule="evenodd" d="M197.638 450.188C224.348 461.66 261.946 469 304 469C346.054 469 383.652 461.66 410.362 450.188C423.735 444.444 433.919 437.862 440.616 431.063C447.269 424.307 450 417.877 450 412H470C470 424.625 464 435.821 454.866 445.096C445.774 454.328 433.113 462.183 418.255 468.565C388.505 481.342 348.102 489 304 489C259.898 489 219.495 481.342 189.745 468.565C174.887 462.183 162.226 454.328 153.134 445.096C144 435.821 138 424.625 138 412H158C158 417.877 160.731 424.307 167.384 431.063C174.081 437.862 184.265 444.444 197.638 450.188Z" fill="#3B633A"/>
<path fill-rule="evenodd" clip-rule="evenodd" d="M156.377 197.392C161.896 197.604 166.198 202.25 165.985 207.769L157.985 415.769C157.773 421.287 153.127 425.589 147.608 425.377C142.09 425.165 137.788 420.519 138 415L146 207C146.212 201.481 150.858 197.179 156.377 197.392Z" fill="#3B633A"/>
<path fill-rule="evenodd" clip-rule="evenodd" d="M467.359 210.006C472.878 210.205 477.192 214.839 476.994 220.359L469.994 415.359C469.795 420.878 465.161 425.192 459.641 424.994C454.122 424.795 449.808 420.161 450.006 414.641L457.006 219.641C457.205 214.122 461.839 209.808 467.359 210.006Z" fill="#3B633A"/>
</svg>
